# File created by Blade
# Date/Time:  Wed Jan 21 16:20:01 2015
# Frame Rate: 120.000 fps
#------------------------------------------------------
:FULLY-SPECIFIED
:DEGREES
1012
root 19.598044 35.591192 -21.457118 -174.305990 1.212852 -176.247499
Spine -14.183892 -2.783334 6.666066
Head 5.704102 2.279103 -1.658086
LeftShoulder -15.199257 -32.049637 19.035196
LeftArm 1.634215 4.452423 -6.282745
LeftForeArm 12.609767 -0.000000 -1.306009
LeftHand -7.703039 -0.000000 0.410046
LeftHandThumb1 -26.253704 0.000000 33.147579
RightShoulder -12.240157 -3.908501 -10.922455
RightArm 3.331941 33.708005 7.067772
RightForeArm -36.982415 -0.000000 7.452056
RightHand -7.347726 -0.000000 2.242665
RightHandThumb1 -24.326973 -0.000000 -32.862282
LeftUpLeg 3.713460 3.872153 7.463518
LeftLeg -12.643111 -0.000000 0.000000
LeftFoot 1.535793 23.226851 5.953842
LeftToeBase -144.746178 -0.000000 0.000000
RightUpLeg -0.314312 -8.712919 4.058587
RightLeg -2.534379 -0.000000 0.000000
RightFoot -19.443424 -24.673740 16.628165
RightToeBase 22.190553 -0.000000 -0.000000
1013
root 19.567391 35.591685 -21.465160 -174.361477 1.245505 -176.256563
Spine -14.141329 -2.714209 6.585848
Head 5.804206 2.227000 -1.504153
LeftShoulder -15.137638 -32.041859 19.100323
LeftArm 1.478932 4.419367 -6.453311
LeftForeArm 12.605749 -0.000000 -1.503210
LeftHand -7.779599 0.000000 -0.012095
LeftHandThumb1 -26.253704 0.000000 33.147579
RightShoulder -12.358894 -3.802606 -10.762906
RightArm 3.415572 33.817176 7.314225
RightForeArm -37.040799 -0.000000 7.279346
RightHand -7.263752 -0.000000 2.463268
RightHandThumb1 -24.326973 -0.000000 -32.862282
LeftUpLeg 3.771870 3.752247 7.411282
LeftLeg -12.593993 -0.000000 0.000000
LeftFoot 1.494061 23.335713 6.001781
LeftToeBase -144.636715 -0.000000 0.000000
RightUpLeg -0.248703 -8.740926 3.987570
RightLeg -2.527314 -0.000000 0.000000
RightFoot -19.425964 -24.611008 16.650857
RightToeBase 22.207734 -0.000000 -0.000000
1014
root 19.538103 35.591609 -21.474553 -174.421363 1.234765 -176.263889
Spine -14.114017 -2.699542 6.514705
Head 5.937435 2.157411 -1.390825
LeftShoulder -15.078362 -31.989695 19.149646
LeftArm 1.365095 4.381259 -6.631486
LeftForeArm 12.538100 -0.000000 -1.801099
LeftHand -7.884537 -0.000000 -0.287734
LeftHandThumb1 -26.253704 0.000000 33.147579
RightShoulder -12.479540 -3.935196 -10.545200
RightArm 3.600709 34.067918 7.593139
RightForeArm -37.117882 0.000000 7.007816
RightHand -7.149814 -0.000000 2.670119
RightHandThumb1 -24.326973 -0.000000 -32.862282
LeftUpLeg 3.824568 3.616528 7.367220
LeftLeg -12.540820 -0.000000 0.000000
LeftFoot 1.450821 23.411710 6.049445
LeftToeBase -144.490968 -0.000000 0.000000
RightUpLeg -0.166092 -8.795777 3.927787
RightLeg -2.552598 -0.000000 0.000000
RightFoot -19.414576 -24.617841 16.692292
RightToeBase 22.376100 -0.000000 -0.000000
1015
root 19.510211 35.591620 -21.482276 -174.470927 1.245918 -176.253883
Spine -14.090759 -2.685302 6.473204
Head 6.044446 2.094411 -1.270387
LeftShoulder -15.028774 -31.968300 19.220427
LeftArm 1.191013 4.277236 -6.819980
LeftForeArm 12.642313 -0.000000 -2.058482
LeftHand -7.998862 0.000000 -0.763075
LeftHandThumb1 -26.253704 0.000000 33.147579
RightShoulder -12.528215 -3.815281 -10.414483
RightArm 3.685548 34.073046 7.857504
RightForeArm -37.056811 -0.000000 6.758171
RightHand -7.099316 -0.000000 3.119003
RightHandThumb1 -24.326973 -0.000000 -32.862282
LeftUpLeg 3.894959 3.469052 7.342663
LeftLeg -12.535536 -0.000000 0.000000
LeftFoot 1.426398 23.509536 6.077873
LeftToeBase -144.368111 -0.000000 0.000000
RightUpLeg -0.105202 -8.806444 3.884047
RightLeg -2.553600 -0.000000 0.000000
RightFoot -19.398218 -24.595855 16.709676
RightToeBase 22.219504 -0.000000 -0.000000
1016
root 19.482080 35.590864 -21.491653 -174.544630 1.268841 -176.250957
Spine -14.047475 -2.645646 6.406790
Head 6.191508 2.031122 -1.124730
LeftShoulder -14.952339 -31.991901 19.304953
LeftArm 0.999713 4.186421 -7.023797
LeftForeArm 12.701572 -0.000000 -2.313516
LeftHand -8.193250 -0.000000 -1.297243
LeftHandThumb1 -26.253704 0.000000 33.147579
RightShoulder -12.565553 -3.822983 -10.278983
RightArm 3.767159 34.318965 8.185451
RightForeArm -37.172394 -0.000000 6.494799
RightHand -7.006715 -0.000000 3.560203
RightHandThumb1 -24.326973 -0.000000 -32.862282
LeftUpLeg 3.961604 3.445519 7.306442
LeftLeg -12.473282 -0.000000 0.000000
LeftFoot 1.350348 23.519607 6.138795
LeftToeBase -144.283811 -0.000000 0.000000
RightUpLeg -0.010568 -8.820310 3.831667
RightLeg -2.573362 -0.000000 0.000000
RightFoot -19.373449 -24.583903 16.741591
RightToeBase 22.114832 -0.000000 -0.000000
1017
root 19.454623 35.590266 -21.502594 -174.639535 1.319458 -176.227705
Spine -13.957568 -2.611764 6.380950
Head 6.278342 2.073263 -0.999084
LeftShoulder -14.977208 -32.024558 19.387197
LeftArm 0.901285 4.068663 -7.208553
LeftForeArm 12.795359 -0.000000 -2.598674
LeftHand -8.328297 -0.000000 -1.840475
LeftHandThumb1 -26.253704 0.000000 33.147579
RightShoulder -12.553342 -3.658138 -10.163962
RightArm 3.828769 34.508421 8.448765
RightForeArm -37.239904 -0.000000 6.150716
RightHand -6.955394 -0.000000 3.998463
RightHandThumb1 -24.326973 -0.000000 -32.862282
LeftUpLeg 4.103308 3.318015 7.301678
LeftLeg -12.484999 -0.000000 0.000000
LeftFoot 1.316379 23.593139 6.189876
LeftToeBase -144.153734 -0.000000 0.000000
RightUpLeg 0.098161 -8.781309 3.790544
RightLeg -2.571989 -0.000000 0.000000
RightFoot -19.364192 -24.587190 16.777677
RightToeBase 22.126527 -0.000000 -0.000000
1018
root 19.426464 35.588966 -21.512116 -174.711143 1.355228 -176.232111
Spine -13.923690 -2.547132 6.311750
Head 6.454977 2.082181 -0.859325
LeftShoulder -14.880195 -32.106781 19.408282
LeftArm 0.750447 3.925576 -7.336087
LeftForeArm 12.936251 -0.000000 -2.847828
LeftHand -8.426502 -0.000000 -2.477910
LeftHandThumb1 -26.253704 0.000000 33.147579
RightShoulder -12.621566 -3.706133 -10.057147
RightArm 4.019834 34.622640 8.833749
RightForeArm -37.020472 -0.000000 5.746958
RightHand -6.893686 -0.000000 4.402944
RightHandThumb1 -24.326973 -0.000000 -32.862282
LeftUpLeg 4.228533 3.149549 7.264260
LeftLeg -12.524305 -0.000000 0.000000
LeftFoot 1.334383 23.690308 6.229574
LeftToeBase -144.058161 -0.000000 0.000000
RightUpLeg 0.180219 -8.792763 3.729380
RightLeg -2.572151 -0.000000 0.000000
RightFoot -19.360233 -24.579299 16.782480
RightToeBase 22.191478 -0.000000 -0.000000
1019
root 19.397760 35.587108 -21.509964 -174.702012 1.437948 -176.256604
Spine -13.963792 -2.441232 6.208180
Head 6.623279 2.084021 -0.674374
LeftShoulder -14.811662 -32.169360 19.453616
LeftArm 0.638246 3.795249 -7.478320
LeftForeArm 12.970091 -0.000000 -3.130399
LeftHand -8.681149 0.000000 -3.081710
LeftHandThumb1 -26.253704 0.000000 33.147579
RightShoulder -12.631481 -3.692219 -9.967092
RightArm 4.159796 34.828968 9.215468
RightForeArm -36.993252 -0.000000 5.296813
RightHand -6.780378 0.000000 4.700560
RightHandThumb1 -24.326973 -0.000000 -32.862282
LeftUpLeg 4.251976 3.047667 7.193852
LeftLeg -12.544416 -0.000000 0.000000
LeftFoot 1.325972 23.819202 6.258815
LeftToeBase -144.011964 -0.000000 0.000000
RightUpLeg 0.134877 -8.700349 3.658119
RightLeg -2.523279 -0.000000 0.000000
RightFoot -19.377320 -24.622827 16.750577
RightToeBase 22.186961 -0.000000 -0.000000
1020
root 19.373334 35.586054 -21.519112 -174.759488 1.474245 -176.255803
Spine -13.939274 -2.406287 6.151833
Head 6.771227 2.077904 -0.548265
LeftShoulder -14.806936 -32.252324 19.511823
LeftArm 0.526915 3.708241 -7.608040
LeftForeArm 12.966309 -0.000000 -3.299888
LeftHand -8.870376 0.000000 -3.742425
LeftHandThumb1 -26.253704 0.000000 33.147579
RightShoulder -12.645051 -3.611782 -9.913842
RightArm 4.320358 35.226664 9.645690
RightForeArm -37.263813 0.000000 4.905566
RightHand -6.803490 -0.000000 5.164084
RightHandThumb1 -24.326973 -0.000000 -32.862282
LeftUpLeg 4.353015 3.036669 7.156513
LeftLeg -12.581465 -0.000000 0.000000
LeftFoot 1.312861 23.828654 6.278992
LeftToeBase -144.023570 -0.000000 0.000000
RightUpLeg 0.204146 -8.713894 3.610431
RightLeg -2.528556 -0.000000 0.000000
RightFoot -19.363215 -24.595797 16.770864
RightToeBase 22.147214 -0.000000 -0.000000
1021
root 19.350482 35.585439 -21.529998 -174.835883 1.493116 -176.245481
Spine -13.914135 -2.345629 6.102151
Head 6.970546 2.013140 -0.463726
LeftShoulder -14.716827 -32.293004 19.467438
LeftArm 0.423229 3.477576 -7.666716
LeftForeArm 12.883232 0.000000 -3.419810
LeftHand -9.008735 -0.000000 -4.285334
LeftHandThumb1 -26.253704 0.000000 33.147579
RightShoulder -12.669725 -3.592224 -9.841562
RightArm 4.428751 35.579599 10.009520
RightForeArm -37.258879 0.000000 4.585673
RightHand -6.800483 -0.000000 5.645262
RightHandThumb1 -24.326973 -0.000000 -32.862282
LeftUpLeg 4.477133 3.012561 7.136813
LeftLeg -12.629834 -0.000000 0.000000
LeftFoot 1.295419 23.831606 6.295312
LeftToeBase -144.014439 -0.000000 0.000000
RightUpLeg 0.297556 -8.760509 3.572366
RightLeg -2.535915 -0.000000 0.000000
RightFoot -19.350260 -24.553230 16.787787
RightToeBase 22.158586 -0.000000 -0.000000
